<?xml version="1.0" encoding="UTF-8" standalone="no"?>
<!DOCTYPE svg PUBLIC "-//W3C//DTD SVG 1.1//EN"
 "http://www.w3.org/Graphics/SVG/1.1/DTD/svg11.dtd">
<!-- Generated by graphviz version 2.43.0 (0)
 -->
<!-- Title: phoenix Pages: 1 -->
<svg width="1369pt" height="189pt"
 viewBox="0.00 0.00 1369.00 189.00" xmlns="http://www.w3.org/2000/svg" xmlns:xlink="http://www.w3.org/1999/xlink">
<g id="graph0" class="graph" transform="scale(1 1) rotate(0) translate(4 185)">
<title>phoenix</title>
<polygon fill="white" stroke="transparent" points="-4,4 -4,-185 1365,-185 1365,4 -4,4"/>
<g id="clust1" class="cluster">
<title>cluster_sim</title>
<path fill="white" stroke="#1a73e8" stroke-dasharray="5,2" d="M20,-20C20,-20 438,-20 438,-20 444,-20 450,-26 450,-32 450,-32 450,-161 450,-161 450,-167 444,-173 438,-173 438,-173 20,-173 20,-173 14,-173 8,-167 8,-161 8,-161 8,-32 8,-32 8,-26 14,-20 20,-20"/>
<text text-anchor="middle" x="229" y="-159.4" font-family="Helvetica,sans-Serif" font-weight="bold" font-size="12.00">Simulation (Isaac Lab Python)</text>
</g>
<g id="clust2" class="cluster">
<title>cluster_bridge</title>
<path fill="white" stroke="#e37400" stroke-dasharray="5,2" d="M536,-20C536,-20 886,-20 886,-20 892,-20 898,-26 898,-32 898,-32 898,-89 898,-89 898,-95 892,-101 886,-101 886,-101 536,-101 536,-101 530,-101 524,-95 524,-89 524,-89 524,-32 524,-32 524,-26 530,-20 536,-20"/>
<text text-anchor="middle" x="711" y="-87.4" font-family="Helvetica,sans-Serif" font-weight="bold" font-size="12.00">Sim → Real Bridge</text>
</g>
<g id="clust3" class="cluster">
<title>cluster_real</title>
<path fill="white" stroke="#188038" stroke-dasharray="5,2" d="M979,-22C979,-22 1341,-22 1341,-22 1347,-22 1353,-28 1353,-34 1353,-34 1353,-83 1353,-83 1353,-89 1347,-95 1341,-95 1341,-95 979,-95 979,-95 973,-95 967,-89 967,-83 967,-83 967,-34 967,-34 967,-28 973,-22 979,-22"/>
<text text-anchor="middle" x="1160" y="-81.4" font-family="Helvetica,sans-Serif" font-weight="bold" font-size="12.00">Real Robot (ROS 2 Python)</text>
</g>
<!-- sim_env -->
<g id="node1" class="node">
<title>sim_env</title>
<path fill="#e8f0fe" stroke="#1a73e8" d="M183,-144C183,-144 28,-144 28,-144 22,-144 16,-138 16,-132 16,-132 16,-112 16,-112 16,-106 22,-100 28,-100 28,-100 183,-100 183,-100 189,-100 195,-106 195,-112 195,-112 195,-132 195,-132 195,-138 189,-144 183,-144"/>
<text text-anchor="middle" x="105.5" y="-131.2" font-family="Helvetica,sans-Serif" font-size="11.00">sim_env</text>
<text text-anchor="middle" x="105.5" y="-119.2" font-family="Helvetica,sans-Serif" font-size="11.00">Phoenix GO2 env</text>
<text text-anchor="middle" x="105.5" y="-107.2" font-family="Helvetica,sans-Serif" font-size="11.00">(DR + terrain + perturbation)</text>
</g>
<!-- training -->
<g id="node2" class="node">
<title>training</title>
<path fill="#e8f0fe" stroke="#1a73e8" d="M398.5,-144C398.5,-144 303.5,-144 303.5,-144 297.5,-144 291.5,-138 291.5,-132 291.5,-132 291.5,-112 291.5,-112 291.5,-106 297.5,-100 303.5,-100 303.5,-100 398.5,-100 398.5,-100 404.5,-100 410.5,-106 410.5,-112 410.5,-112 410.5,-132 410.5,-132 410.5,-138 404.5,-144 398.5,-144"/>
<text text-anchor="middle" x="351" y="-131.2" font-family="Helvetica,sans-Serif" font-size="11.00">training</text>
<text text-anchor="middle" x="351" y="-119.2" font-family="Helvetica,sans-Serif" font-size="11.00">PPO (rsl_rl)</text>
<text text-anchor="middle" x="351" y="-107.2" font-family="Helvetica,sans-Serif" font-size="11.00">→ checkpoints/*.pt</text>
</g>
<!-- sim_env&#45;&gt;training -->
<!-- export -->
<g id="node5" class="node">
<title>export</title>
<path fill="#fff3e0" stroke="#e37400" d="M626,-72C626,-72 544,-72 544,-72 538,-72 532,-66 532,-60 532,-60 532,-40 532,-40 532,-34 538,-28 544,-28 544,-28 626,-28 626,-28 632,-28 638,-34 638,-40 638,-40 638,-60 638,-60 638,-66 632,-72 626,-72"/>
<text text-anchor="middle" x="585" y="-59.2" font-family="Helvetica,sans-Serif" font-size="11.00">sim2real.export</text>
<text text-anchor="middle" x="585" y="-47.2" font-family="Helvetica,sans-Serif" font-size="11.00">.pt → .onnx</text>
<text text-anchor="middle" x="585" y="-35.2" font-family="Helvetica,sans-Serif" font-size="11.00">(+ verify parity)</text>
</g>
<!-- training&#45;&gt;export -->
<g id="edge1" class="edge">
<title>training&#45;&gt;export</title>
<path fill="none" stroke="#5f6368" d="M410.67,-105.26C441.52,-96.3 479.91,-84.89 514,-74 516.61,-73.17 519.26,-72.31 521.94,-71.43"/>
<polygon fill="#5f6368" stroke="#5f6368" points="523.32,-74.66 531.71,-68.2 521.12,-68.02 523.32,-74.66"/>
<text text-anchor="middle" x="487" y="-93" font-family="Helvetica,sans-Serif" font-size="10.00">checkpoint</text>
</g>
<!-- replay -->
<g id="node3" class="node">
<title>replay</title>
<path fill="#e8f0fe" stroke="#1a73e8" d="M160.5,-72C160.5,-72 50.5,-72 50.5,-72 44.5,-72 38.5,-66 38.5,-60 38.5,-60 38.5,-40 38.5,-40 38.5,-34 44.5,-28 50.5,-28 50.5,-28 160.5,-28 160.5,-28 166.5,-28 172.5,-34 172.5,-40 172.5,-40 172.5,-60 172.5,-60 172.5,-66 166.5,-72 160.5,-72"/>
<text text-anchor="middle" x="105.5" y="-59.2" font-family="Helvetica,sans-Serif" font-size="11.00">replay</text>
<text text-anchor="middle" x="105.5" y="-47.2" font-family="Helvetica,sans-Serif" font-size="11.00">failure reconstruction</text>
<text text-anchor="middle" x="105.5" y="-35.2" font-family="Helvetica,sans-Serif" font-size="11.00">+ Halton variations</text>
</g>
<!-- adapt -->
<g id="node4" class="node">
<title>adapt</title>
<path fill="#e8f0fe" stroke="#1a73e8" d="M430,-64C430,-64 272,-64 272,-64 266,-64 260,-58 260,-52 260,-52 260,-40 260,-40 260,-34 266,-28 272,-28 272,-28 430,-28 430,-28 436,-28 442,-34 442,-40 442,-40 442,-52 442,-52 442,-58 436,-64 430,-64"/>
<text text-anchor="middle" x="351" y="-49.2" font-family="Helvetica,sans-Serif" font-size="11.00">adaptation</text>
<text text-anchor="middle" x="351" y="-37.2" font-family="Helvetica,sans-Serif" font-size="11.00">fine&#45;tune w/ failure curriculum</text>
</g>
<!-- replay&#45;&gt;adapt -->
<g id="edge6" class="edge">
<title>replay&#45;&gt;adapt</title>
<path fill="none" stroke="#5f6368" d="M172.72,-48.91C196.34,-48.52 223.51,-48.08 249.37,-47.65"/>
<polygon fill="#5f6368" stroke="#5f6368" points="249.65,-51.15 259.59,-47.49 249.53,-44.15 249.65,-51.15"/>
<text text-anchor="middle" x="227.5" y="-51" font-family="Helvetica,sans-Serif" font-size="10.00">seeds</text>
</g>
<!-- adapt&#45;&gt;training -->
<g id="edge7" class="edge">
<title>adapt&#45;&gt;training</title>
<path fill="none" stroke="#5f6368" stroke-dasharray="5,2" d="M351,-64.01C351,-71.71 351,-80.94 351,-89.74"/>
<polygon fill="#5f6368" stroke="#5f6368" points="347.5,-89.77 351,-99.77 354.5,-89.77 347.5,-89.77"/>
<text text-anchor="middle" x="342.5" y="-79.5" font-family="Helvetica,sans-Serif" font-size="10.00">warm start</text>
</g>
<!-- adapt&#45;&gt;export -->
<g id="edge8" class="edge">
<title>adapt&#45;&gt;export</title>
<path fill="none" stroke="#5f6368" stroke-dasharray="5,2" d="M442.03,-47.55C468.67,-48.01 497.23,-48.5 521.7,-48.93"/>
<polygon fill="#5f6368" stroke="#5f6368" points="521.86,-52.43 531.92,-49.1 521.98,-45.43 521.86,-52.43"/>
<text text-anchor="middle" x="487" y="-62" font-family="Helvetica,sans-Serif" font-size="10.00">improved</text>
<text text-anchor="middle" x="487" y="-51" font-family="Helvetica,sans-Serif" font-size="10.00">checkpoint</text>
</g>
<!-- ros_node -->
<g id="node6" class="node">
<title>ros_node</title>
<path fill="#fff3e0" stroke="#e37400" d="M878,-67C878,-67 741,-67 741,-67 735,-67 729,-61 729,-55 729,-55 729,-43 729,-43 729,-37 735,-31 741,-31 741,-31 878,-31 878,-31 884,-31 890,-37 890,-43 890,-43 890,-55 890,-55 890,-61 884,-67 878,-67"/>
<text text-anchor="middle" x="809.5" y="-52.2" font-family="Helvetica,sans-Serif" font-size="11.00">sim2real.ros2_policy_node</text>
<text text-anchor="middle" x="809.5" y="-40.2" font-family="Helvetica,sans-Serif" font-size="11.00">50 Hz policy @ GO2</text>
</g>
<!-- export&#45;&gt;ros_node -->
<g id="edge2" class="edge">
<title>export&#45;&gt;ros_node</title>
<path fill="none" stroke="#5f6368" d="M638.17,-49.77C662.08,-49.66 691.14,-49.53 718.42,-49.4"/>
<polygon fill="#5f6368" stroke="#5f6368" points="718.79,-52.9 728.78,-49.36 718.76,-45.9 718.79,-52.9"/>
<text text-anchor="middle" x="683.5" y="-52" font-family="Helvetica,sans-Serif" font-size="10.00">policy.onnx</text>
</g>
<!-- detect -->
<g id="node7" class="node">
<title>detect</title>
<path fill="#e6f4ea" stroke="#188038" d="M1126,-66C1126,-66 987,-66 987,-66 981,-66 975,-60 975,-54 975,-54 975,-42 975,-42 975,-36 981,-30 987,-30 987,-30 1126,-30 1126,-30 1132,-30 1138,-36 1138,-42 1138,-42 1138,-54 1138,-54 1138,-60 1132,-66 1126,-66"/>
<text text-anchor="middle" x="1056.5" y="-51.2" font-family="Helvetica,sans-Serif" font-size="11.00">real_world.failure_detector</text>
<text text-anchor="middle" x="1056.5" y="-39.2" font-family="Helvetica,sans-Serif" font-size="11.00">pitch / collapse / slip</text>
</g>
<!-- ros_node&#45;&gt;detect -->
<g id="edge3" class="edge">
<title>ros_node&#45;&gt;detect</title>
<path fill="none" stroke="#5f6368" d="M890.04,-48.68C913.87,-48.58 940.17,-48.47 964.67,-48.37"/>
<polygon fill="#5f6368" stroke="#5f6368" points="964.69,-51.87 974.68,-48.33 964.66,-44.87 964.69,-51.87"/>
<text text-anchor="middle" x="932.5" y="-51" font-family="Helvetica,sans-Serif" font-size="10.00">telemetry</text>
</g>
<!-- log -->
<g id="node8" class="node">
<title>log</title>
<path fill="#e6f4ea" stroke="#188038" d="M1333,-66C1333,-66 1187,-66 1187,-66 1181,-66 1175,-60 1175,-54 1175,-54 1175,-42 1175,-42 1175,-36 1181,-30 1187,-30 1187,-30 1333,-30 1333,-30 1339,-30 1345,-36 1345,-42 1345,-42 1345,-54 1345,-54 1345,-60 1339,-66 1333,-66"/>
<text text-anchor="middle" x="1260" y="-51.2" font-family="Helvetica,sans-Serif" font-size="11.00">real_world.trajectory_logger</text>
<text text-anchor="middle" x="1260" y="-39.2" font-family="Helvetica,sans-Serif" font-size="11.00">→ data/failures/*.parquet</text>
</g>
<!-- detect&#45;&gt;log -->
<g id="edge4" class="edge">
<title>detect&#45;&gt;log</title>
<path fill="none" stroke="#5f6368" d="M1138.01,-48C1146.85,-48 1155.91,-48 1164.89,-48"/>
<polygon fill="#5f6368" stroke="#5f6368" points="1164.99,-51.5 1174.99,-48 1164.99,-44.5 1164.99,-51.5"/>
</g>
<!-- log&#45;&gt;replay -->
<g id="edge5" class="edge">
<title>log&#45;&gt;replay</title>
<path fill="none" stroke="#5f6368" d="M1211.31,-29.99C1170.95,-16.37 1111.26,0 1057.5,0 350,0 350,0 350,0 293.09,0 230.2,-13.27 182.59,-26.13"/>
<polygon fill="#5f6368" stroke="#5f6368" points="181.38,-22.84 172.67,-28.87 183.24,-29.58 181.38,-22.84"/>
<text text-anchor="middle" x="683.5" y="-3" font-family="Helvetica,sans-Serif" font-size="10.00">parquet</text>
</g>
</g>
</svg>
